<?xml version="1.0" standalone="no"?>
<!DOCTYPE svg PUBLIC "-//W3C//DTD SVG 1.1//EN" "http://www.w3.org/Graphics/SVG/1.1/DTD/svg11.dtd" >
<svg xmlns="http://www.w3.org/2000/svg" xmlns:xlink="http://www.w3.org/1999/xlink" version="1.1">
<metadata></metadata>
<defs>
<font id="arialbold_italic" horiz-adv-x="1139" >
<font-face units-per-em="2048" ascent="1638" descent="-410" />
<missing-glyph horiz-adv-x="569" />
<glyph horiz-adv-x="0" />
<glyph horiz-adv-x="682" />
<glyph unicode=" "  horiz-adv-x="569" />
<glyph unicode="&#x09;" horiz-adv-x="569" />
<glyph unicode="&#xa0;" horiz-adv-x="569" />
<glyph unicode="!" horiz-adv-x="682" d="M126 0l58 277h284l-58 -277h-284zM260 373l90 748l72 345h301l-77 -371l-228 -722h-158z" />
<glyph unicode="&#x22;" horiz-adv-x="971" d="M310 945l5 273l53 248h306l-53 -248l-104 -273h-207zM674 945l5 273l53 248h306l-53 -248l-104 -273h-207z" />
<glyph unicode="#" d="M98 365v220h180l60 295h-240v221h285l79 390h224l-79 -390h221l77 390h232l-80 -390h138v-221h-183l-60 -295h243v-220h-288l-79 -390h-223l77 390h-222l-79 -390h-226l79 390h-136zM504 585h222l58 295h-221z" />
<glyph unicode="$" d="M90 426l253 13q19 -172 133 -224l92 442q-159 70 -232.5 180.5t-73.5 230.5q0 108 58.5 209.5t166 158t203.5 56.5l53 -1l18 86h143l-22 -103q129 -32 207 -124t91 -235l-246 -13q-18 111 -97 155l-83 -398q178 -72 255.5 -179.5t77.5 -245.5q0 -192 -143 -326.5 t-375 -134.5l-37 -176h-143l40 193q-143 35 -235 149.5t-104 286.5zM501 1098q0 -112 122 -180l76 363q-85 1 -141.5 -53.5t-56.5 -129.5zM615 195q113 9 174.5 70t61.5 145q0 55 -28 95t-124 91z" />
<glyph unicode="%" horiz-adv-x="1821" d="M186 1011q0 191 103 335.5t288 144.5q126 0 201.5 -80t75.5 -223q0 -118 -51.5 -237t-140.5 -174.5t-199 -55.5q-124 0 -200.5 78t-76.5 212zM254 -63l1222 1554h230l-1221 -1554h-231zM397 988q0 -51 22 -74.5t60 -23.5q72 0 120.5 108.5t48.5 229.5q0 44 -23 68.5 t-60 24.5q-42 0 -75.5 -34.5t-63 -135t-29.5 -163.5zM1102 229q0 191 103 336t288 145q126 0 201.5 -80t75.5 -223q0 -118 -51.5 -237.5t-140.5 -174.5t-199 -55q-124 0 -200.5 78t-76.5 211zM1312 207q0 -51 22 -74.5t61 -23.5q72 0 120.5 108t48.5 229q0 45 -23 69.5 t-60 24.5q-42 0 -75.5 -34.5t-63.5 -135t-30 -163.5z" />
<glyph unicode="&#x26;" horiz-adv-x="1479" d="M170 391q0 111 51.5 206.5t133.5 163.5q59 49 192 120q-65 141 -65 246q0 154 112.5 259t296.5 105q158 0 250.5 -83.5t92.5 -195.5q0 -95 -79.5 -205.5t-261.5 -202.5q57 -96 142 -220q51 -76 82 -109q51 51 122 163l207 -124q-29 -56 -75.5 -121.5t-86.5 -102.5 q57 -61 146 -136l-181 -188q-34 18 -86.5 61t-88.5 81q-72 -57 -181 -95t-235 -38q-228 0 -358 120.5t-130 295.5zM453 418q0 -92 59 -151t157 -59q119 0 245 83q-151 184 -263 388q-198 -99 -198 -261zM746 1154q0 -64 43 -154q118 60 166 121q34 44 34 89q0 41 -27.5 67.5 t-75.5 26.5q-60 0 -100 -41.5t-40 -108.5z" />
<glyph unicode="'" horiz-adv-x="487" d="M310 945l5 273l53 248h306l-53 -248l-104 -273h-207z" />
<glyph unicode="(" horiz-adv-x="682" d="M135 314q0 204 65.5 409.5t200.5 418.5q85 136 273 349h218q-191 -224 -294.5 -421t-154.5 -429t-51 -454q0 -150 22.5 -292t76.5 -326h-195q-82 191 -121.5 386.5t-39.5 358.5z" />
<glyph unicode=")" horiz-adv-x="682" d="M-160 -431q190 224 293.5 420t154.5 428.5t51 455.5q0 151 -22 292.5t-76 325.5h195q82 -190 121.5 -386t39.5 -358q0 -204 -65.5 -409.5t-200.5 -419.5q-86 -136 -273 -349h-218z" />
<glyph unicode="*" horiz-adv-x="797" d="M201 1166l59 176q131 -53 234 -117q-24 163 -24 266h178q0 -73 -27 -268q20 8 86 39q90 41 166 70l53 -181q-111 -25 -257 -49l120 -135q36 -41 57 -67l-153 -101l-135 223q-61 -108 -140 -230l-151 117q72 81 150 155q31 30 39 38q-25 4 -143 33q-85 21 -112 31z" />
<glyph unicode="+" horiz-adv-x="1196" d="M165 592v263h384v381h256v-381h385v-263h-385v-381h-256v381h-384z" />
<glyph unicode="," horiz-adv-x="569" d="M21 -318l28 133q72 16 111.5 57.5t58.5 127.5h-132l59 277h289l-48 -229q-41 -198 -131.5 -280.5t-234.5 -85.5z" />
<glyph unicode="-" horiz-adv-x="682" d="M79 390l58 277h557l-58 -277h-557z" />
<glyph unicode="." horiz-adv-x="569" d="M90 0l58 277h284l-58 -277h-284z" />
<glyph unicode="/" horiz-adv-x="569" d="M-89 -25l726 1516h200l-725 -1516h-201z" />
<glyph unicode="0" d="M132 477q0 221 75 448q92 277 236 412t320 135q178 0 292.5 -129t114.5 -375q0 -225 -83.5 -475.5t-225.5 -384t-320 -133.5t-293.5 129t-115.5 373zM414 419q0 -118 38 -166t98 -48q80 0 142 74q83 99 147 390q51 231 51 366q0 110 -38.5 158.5t-98.5 48.5 q-76 0 -135 -73q-87 -106 -150 -373q-54 -231 -54 -377z" />
<glyph unicode="1" d="M243 842l54 256q371 162 574 377h175l-309 -1475h-289l213 1016q-90 -58 -207.5 -106t-210.5 -68z" />
<glyph unicode="2" d="M124 0q14 108 63.5 205.5t123.5 181.5t271 271q148 142 187 185q70 78 96 135t26 103q0 74 -43.5 120t-110.5 46q-68 0 -119 -51.5t-77 -186.5l-281 42q34 204 158.5 312.5t311.5 108.5q205 0 322 -111t117 -282q0 -87 -36 -174.5t-118 -183.5q-59 -68 -193 -192.5 t-177.5 -170t-83.5 -96.5h508l-54 -262h-891z" />
<glyph unicode="3" d="M104 383l275 33q17 -117 61.5 -162t118.5 -45q98 0 162.5 66t64.5 169q0 90 -52 142.5t-140 52.5q-22 0 -46 -4l50 239q15 -2 29 -2q115 0 175 58.5t60 158.5q0 71 -40.5 112t-106.5 41q-62 0 -111 -45.5t-78 -155.5l-262 52q50 162 139 249q135 130 332 130 q202 0 307 -112.5t105 -269.5q0 -114 -67 -206t-184 -135q93 -49 137 -127t44 -163q0 -162 -115 -298q-157 -186 -405 -186q-186 0 -306.5 106.5t-146.5 301.5z" />
<glyph unicode="4" d="M56 299l50 240l793 927h248l-193 -923h178l-51 -244h-178l-63 -299h-270l63 299h-577zM392 543h292l95 457z" />
<glyph unicode="5" d="M130 420l279 25q-1 -20 -1 -30q0 -102 45.5 -153t118.5 -51q102 0 185.5 97.5t83.5 269.5q0 102 -47 154t-125 52q-56 0 -108.5 -26t-101.5 -79l-236 18l223 749h737l-54 -262h-487l-67 -226q42 19 84 28.5t83 9.5q168 0 276 -113t108 -303q0 -152 -75.5 -299.5 t-209.5 -226.5t-281 -79q-187 0 -307.5 121t-122.5 324z" />
<glyph unicode="6" d="M166 531q0 393 174 667t459 274q164 0 261 -90t119 -274l-269 -22q-8 87 -41.5 122t-90.5 35q-73 0 -130 -58q-81 -83 -130 -268q93 61 197 61q170 0 280 -116t110 -316q0 -159 -77 -300.5t-192 -206.5t-243 -65q-123 0 -221.5 61.5t-152 179.5t-53.5 316zM442 431 q0 -116 46 -171t114 -55q84 0 144 78q81 105 81 282q0 114 -45 168.5t-110 54.5q-55 0 -111 -41.5t-87.5 -132t-31.5 -183.5z" />
<glyph unicode="7" d="M212 1181l55 265h967l-43 -204q-92 -74 -203 -222.5t-205.5 -332t-154.5 -348.5q-83 -228 -103 -339h-273q18 110 85 302q82 236 205 456t297 423h-627z" />
<glyph unicode="8" d="M135 380q0 147 82 263t223 164q-77 51 -115.5 117.5t-38.5 147.5q0 94 54 191t161.5 153t243.5 56q196 0 306 -102t110 -258q0 -110 -62 -191.5t-186 -135.5q90 -55 134.5 -133.5t44.5 -179.5q0 -166 -106 -302q-154 -196 -421 -196q-194 0 -312 114.5t-118 291.5z M421 375q0 -82 45 -129t117 -47q111 0 171.5 98t60.5 213q0 74 -46.5 121.5t-118.5 47.5q-90 0 -159.5 -83t-69.5 -221zM549 1053q0 -69 42 -111.5t109 -42.5q77 0 135.5 58.5t58.5 136.5q0 71 -43 115t-110 44q-79 0 -135.5 -58t-56.5 -142z" />
<glyph unicode="9" d="M130 338l269 22q8 -86 41.5 -121t90.5 -35q73 0 129 57q82 83 130 268q-93 -60 -196 -60q-170 0 -280 115.5t-110 315.5q0 224 141 398t374 174q206 0 315 -150t109 -406q0 -395 -174.5 -668t-459.5 -273q-167 0 -267 95.5t-112 267.5zM482 881q0 -114 45 -168.5 t110 -54.5q55 0 111 42t87.5 132.5t31.5 183.5q0 116 -46 170.5t-114 54.5q-84 0 -144 -78q-81 -105 -81 -282z" />
<glyph unicode=":" horiz-adv-x="682" d="M144 0l58 277h284l-58 -277h-284zM308 784l58 278h283l-58 -278h-283z" />
<glyph unicode=";" horiz-adv-x="682" d="M83 -318l28 133q72 16 111.5 57.5t58.5 127.5h-132l59 277h289l-48 -229q-41 -198 -131.5 -280.5t-234.5 -85.5zM313 784l58 278h284l-58 -278h-284z" />
<glyph unicode="&#x3c;" horiz-adv-x="1196" d="M175 604v242l1005 435v-285l-701 -268l701 -278v-283z" />
<glyph unicode="=" horiz-adv-x="1196" d="M165 372v259h1025v-259h-1025zM165 816v258h1025v-258h-1025z" />
<glyph unicode="&#x3e;" horiz-adv-x="1196" d="M175 166v283l702 276l-702 273v281l1006 -435v-240z" />
<glyph unicode="?" horiz-adv-x="1251" d="M252 1070q51 195 197 308t355 113q218 0 340 -108.5t122 -259.5q0 -88 -52 -175.5t-285 -280.5q-146 -122 -180 -170t-49 -131h-258q20 134 83.5 232.5t254.5 263.5q161 141 189.5 186t28.5 87q0 62 -49 103.5t-150 41.5q-112 0 -183 -61t-101 -195zM354 0l58 277h284 l-58 -277h-284z" />
<glyph unicode="@" horiz-adv-x="1997" d="M133 483q0 281 133 523.5t364 364t528 121.5q252 0 448 -98t299.5 -278.5t103.5 -394.5q0 -255 -157 -461q-197 -260 -505 -260q-83 0 -125 29t-56 85q-118 -114 -272 -114q-166 0 -275.5 114.5t-109.5 304.5q0 235 132 429q160 236 410 236q178 0 263 -136l25 111h264 l-151 -717q-14 -68 -14 -88q0 -25 11.5 -37.5t27.5 -12.5q48 0 124 58q102 76 165 204t63 265q0 246 -178 411.5t-497 165.5q-271 0 -459.5 -110.5t-284 -311t-95.5 -417.5q0 -211 106.5 -384t299 -252.5t440.5 -79.5q239 0 411 66.5t277 199.5h213q-100 -203 -307 -318 q-237 -132 -578 -132q-330 0 -570 111.5t-357 329t-117 473.5zM768 430q0 -127 51.5 -187t127.5 -60q57 0 107 28q38 20 75 63q53 61 91.5 178t38.5 218q0 113 -52.5 173.5t-132.5 60.5q-86 0 -159 -66.5t-110 -189.5t-37 -218z" />
<glyph unicode="A" horiz-adv-x="1479" d="M-23 0l829 1466h335l238 -1466h-286l-49 324h-581l-176 -324h-310zM568 568h439l-85 590z" />
<glyph unicode="B" horiz-adv-x="1479" d="M82 0l307 1466h501q163 0 228 -10q108 -15 183 -60t114 -120t39 -166q0 -122 -68 -211.5t-210 -135.5q113 -31 176.5 -110.5t63.5 -179.5q0 -132 -75 -250.5t-207 -170.5t-361 -52h-691zM433 236h291q183 0 245.5 23.5t100 77.5t37.5 114q0 73 -54 120.5t-180 47.5h-360z M566 874h230q155 0 223 22t102 72t34 107q0 56 -32 92t-91 48q-33 6 -159 6h-234z" />
<glyph unicode="C" horiz-adv-x="1479" d="M194 606q0 250 101.5 457.5t281.5 317.5t392 110q238 0 385 -127.5t173 -347.5l-289 -28q-24 128 -92.5 185.5t-182.5 57.5q-125 0 -233.5 -76t-173.5 -237.5t-65 -322.5q0 -176 84.5 -272t210.5 -96q117 0 214.5 76t145.5 225l304 -46q-89 -247 -267 -377.5t-417 -130.5 q-269 0 -420.5 162t-151.5 470z" />
<glyph unicode="D" horiz-adv-x="1479" d="M89 0l307 1466h395q165 0 211 -5q91 -9 162.5 -37t130 -78.5t101 -121.5t65.5 -163.5t23 -202.5q0 -237 -90.5 -420.5t-227.5 -291.5q-105 -84 -271 -124q-94 -22 -289 -22h-517zM440 236h153q166 0 240.5 20.5t136.5 76.5q89 81 150 216t61 318q0 156 -50.5 234.5 t-124.5 104.5q-52 18 -185 18h-175z" />
<glyph unicode="E" horiz-adv-x="1366" d="M84 0l306 1466h1087l-51 -245h-785l-70 -333h759l-51 -245h-759l-92 -398h853l-52 -245h-1145z" />
<glyph unicode="F" horiz-adv-x="1251" d="M80 0l307 1466h1026l-52 -245h-724l-74 -352h710l-51 -245h-710l-130 -624h-302z" />
<glyph unicode="G" horiz-adv-x="1593" d="M181 585q0 214 85 410q102 236 290 366t442 130t407.5 -118t203.5 -344l-281 -32q-37 124 -119.5 187t-207.5 63q-146 0 -268 -76t-191 -235t-69 -347q0 -185 84 -273.5t246 -88.5q97 0 199 27.5t176 65.5l45 218h-374l51 245h656l-132 -629q-116 -75 -284.5 -127 t-343.5 -52q-272 0 -417 123q-198 168 -198 487z" />
<glyph unicode="H" horiz-adv-x="1479" d="M89 0l307 1466h301l-118 -566h567l119 566h301l-306 -1466h-302l137 655h-567l-137 -655h-302z" />
<glyph unicode="I" horiz-adv-x="569" d="M71 0l307 1466h301l-306 -1466h-302z" />
<glyph unicode="J" d="M59 336q0 35 5 78l279 30q-6 -44 -6 -73q0 -70 40 -107t123 -37q116 0 163 68q35 52 85 293l184 878h296l-185 -888q-74 -353 -194 -478t-369 -125q-211 0 -316 97t-105 264z" />
<glyph unicode="K" horiz-adv-x="1479" d="M81 0l306 1466h302l-130 -623l678 623h404l-658 -575l483 -891h-341l-362 698l-285 -249l-94 -449h-303z" />
<glyph unicode="L" horiz-adv-x="1251" d="M92 0l307 1466h301l-255 -1221h746l-51 -245h-1048z" />
<glyph unicode="M" horiz-adv-x="1706" d="M83 0l306 1466h430l45 -1027l500 1027h435l-307 -1466h-275l289 1216l-579 -1216h-286l-53 1225l-233 -1225h-272z" />
<glyph unicode="N" horiz-adv-x="1479" d="M92 0l306 1466h282l397 -981l205 981h280l-306 -1466h-281l-396 985l-206 -985h-281z" />
<glyph unicode="O" horiz-adv-x="1593" d="M179 575q0 130 39 274q51 193 155.5 335t263.5 224.5t362 82.5q272 0 439.5 -169t167.5 -448q0 -232 -109 -449t-296 -334t-423 -117q-205 0 -344 93t-197 230.5t-58 277.5zM477 581q0 -151 92 -253t242 -102q122 0 234.5 80.5t186 244t73.5 318.5q0 173 -93 271.5 t-237 98.5q-221 0 -359.5 -206t-138.5 -452z" />
<glyph unicode="P" horiz-adv-x="1366" d="M83 0l307 1466h596q159 0 251.5 -37.5t146.5 -124t54 -206.5q0 -111 -43 -216t-105.5 -168t-134.5 -95.5t-194 -49.5q-71 -10 -266 -10h-193l-117 -559h-302zM552 802h93q239 0 319 30t126 96t46 145q0 53 -23.5 87t-66 49.5t-189.5 15.5h-216z" />
<glyph unicode="Q" horiz-adv-x="1593" d="M179 579q0 221 103 447t290.5 345.5t426.5 119.5q272 0 439 -168.5t167 -448.5q0 -214 -89.5 -410t-239.5 -318q96 -94 202 -154l-142 -187q-140 68 -258 224q-70 -27 -145 -41t-155 -14q-268 0 -433.5 167.5t-165.5 437.5zM478 595q0 -171 94.5 -269.5t241.5 -98.5 q41 0 86 6q16 3 19.5 6t3.5 9q0 8 -30 36q-63 60 -134 86l110 168q135 -68 234 -183q91 92 146.5 238t55.5 275q0 174 -93 272.5t-237 98.5q-99 0 -183 -45.5t-154.5 -131.5t-115 -213t-44.5 -254z" />
<glyph unicode="R" horiz-adv-x="1479" d="M90 0l307 1466h651q168 0 261.5 -34.5t151 -126.5t57.5 -223q0 -187 -112 -308.5t-339 -150.5q58 -52 109 -137q101 -172 225 -486h-324q-39 124 -153 387q-62 142 -132 191q-43 29 -150 29h-123l-127 -607h-302zM565 827h160q243 0 322.5 29t124.5 91t45 130 q0 80 -65 120q-40 24 -173 24h-332z" />
<glyph unicode="S" horiz-adv-x="1366" d="M130 475l287 15q6 -137 47 -185q66 -78 244 -78q148 0 214 53t66 128q0 65 -54 110q-38 33 -208.5 107t-249 123.5t-123.5 128.5t-45 185q0 185 134 307t388 122q258 0 399.5 -121t155.5 -322l-289 -13q-11 105 -76 161t-192 56q-125 0 -178.5 -44t-53.5 -111 q0 -63 49 -104q49 -42 217 -115q253 -109 322 -177q103 -100 103 -257q0 -194 -153.5 -331.5t-427.5 -137.5q-189 0 -327.5 63.5t-195.5 176.5q-53 106 -53 241v19z" />
<glyph unicode="T" horiz-adv-x="1251" d="M246 1221l51 245h1155l-51 -245h-424l-255 -1221h-302l256 1221h-430z" />
<glyph unicode="U" horiz-adv-x="1479" d="M187 423q0 41 7 89q4 32 35 182l162 772h301l-166 -796l-41 -196q-4 -25 -4 -47q0 -87 63.5 -143.5t184.5 -56.5q109 0 180 41t110 122t79 275l168 801h301l-167 -802q-53 -253 -122 -387t-209 -218t-354 -84q-256 0 -392 125.5t-136 322.5z" />
<glyph unicode="V" horiz-adv-x="1366" d="M232 1466h301l186 -1109l607 1109h299l-808 -1466h-322z" />
<glyph unicode="W" horiz-adv-x="1933" d="M240 1466h295l13 -1026l503 1026h327l34 -1015l483 1015h292l-709 -1466h-305l-33 1072l-534 -1072h-311z" />
<glyph unicode="X" horiz-adv-x="1366" d="M-62 0l647 742l-364 724h315l143 -275q7 -15 98 -203q6 -10 13 -27q122 149 205 244l231 261h379l-671 -772l361 -694h-340l-110 221q-86 175 -114 251q-39 -59 -201 -244l-202 -228h-390z" />
<glyph unicode="Y" horiz-adv-x="1366" d="M235 1466h321l182 -414q65 -149 87 -215q37 65 86 138l139 194l207 297h350l-672 -923l-114 -543h-301l119 571z" />
<glyph unicode="Z" horiz-adv-x="1251" d="M51 0l48 231l844 990h-683l51 245h1057l-44 -230l-853 -996q136 3 157 3q96 0 265 2h346l-51 -245h-1137z" />
<glyph unicode="[" horiz-adv-x="682" d="M20 -404l391 1870h488l-46 -223h-219l-299 -1433h219l-45 -214h-489z" />
<glyph unicode="\" horiz-adv-x="569" d="M160 1491h201l227 -1516h-201z" />
<glyph unicode="]" horiz-adv-x="682" d="M-114 -404l47 224h221l299 1432h-221l45 214h491l-391 -1870h-491z" />
<glyph unicode="^" horiz-adv-x="1196" d="M215 692l376 799h223l366 -799h-284l-198 489l-197 -489h-286z" />
<glyph unicode="_" d="M-19 -223h1168v-182h-1168v182z" />
<glyph unicode="`" horiz-adv-x="682" d="M274 1499h276l128 -299h-194z" />
<glyph unicode="a" d="M92 284q0 152 94.5 243t337.5 110q205 17 274 41q18 60 18 96q0 46 -37 77t-110 31q-77 0 -121.5 -31.5t-60.5 -89.5l-280 24q48 142 167.5 222t316.5 80q205 0 303 -82.5t98 -201.5q0 -48 -8.5 -102t-59.5 -284q-42 -190 -42 -266q0 -68 24 -151h-279q-17 58 -21 120 q-63 -70 -145 -107.5t-165 -37.5q-132 0 -218 86.5t-86 222.5zM362 309q0 -50 36 -84.5t95 -34.5q65 0 122.5 31.5t86 81t50.5 154.5l8 38q-26 -7 -69 -13q-216 -26 -282 -76q-47 -36 -47 -97z" />
<glyph unicode="b" horiz-adv-x="1251" d="M74 0l306 1466h288l-103 -490q79 60 147.5 85.5t149.5 25.5q168 0 269 -112.5t101 -327.5q0 -145 -47.5 -281.5t-127 -222t-167 -127t-183.5 -41.5q-228 0 -335 200l-37 -175h-261zM461 433q0 -107 60.5 -174t142.5 -67q72 0 137.5 52t109 166t43.5 230 q0 113 -58.5 177.5t-141.5 64.5q-108 0 -186 -100q-107 -137 -107 -349z" />
<glyph unicode="c" d="M123 429q0 173 72 327t217 242.5t318 88.5q188 0 300 -98t126 -258l-273 -29q-10 89 -54.5 131t-116.5 42q-83 0 -155 -62t-110.5 -185.5t-38.5 -231.5q0 -94 46 -145t115 -51t133 50t100 150l279 -45q-69 -186 -204 -283t-313 -97q-203 0 -322 121t-119 333z" />
<glyph unicode="d" horiz-adv-x="1251" d="M121 420q0 255 144 461t381 206q214 0 321 -170l115 549h287l-306 -1466h-272l24 115q-78 -75 -153.5 -107.5t-170.5 -32.5q-165 0 -267.5 112.5t-102.5 332.5zM400 432q0 -114 57.5 -178t141.5 -64q78 0 145.5 53.5t108 163.5t40.5 211q0 115 -62 186t-143 71 q-126 0 -207 -140t-81 -303z" />
<glyph unicode="e" d="M119 469q0 218 121 388q165 230 471 230q195 0 310 -120.5t115 -337.5q0 -104 -20 -187h-720q-1 -17 -1 -26q0 -106 60.5 -171t147.5 -65q143 0 223 148l257 -43q-75 -155 -200.5 -232.5t-281.5 -77.5q-214 0 -348 135.5t-134 358.5zM425 617h449q1 19 1 29 q0 118 -53 177t-142 59t-159.5 -67t-95.5 -198z" />
<glyph unicode="f" horiz-adv-x="682" d="M110 0l178 852h-160l44 210h160l23 109q28 134 53 181q34 64 101.5 101.5t176.5 37.5q132 0 278 -48l-56 -205q-103 35 -167 35q-49 0 -73 -31q-16 -20 -33 -105l-16 -75h203l-44 -210h-203l-178 -852h-287z" />
<glyph unicode="g" horiz-adv-x="1251" d="M64 -98q0 19 3 42l303 -44q0 -46 15 -69.5t48.5 -40t91.5 -16.5q91 0 146 36q41 28 67 90q16 39 41 170l10 50q-149 -124 -308 -124q-156 0 -256 110t-100 322q0 187 68 343t191 236t251 80q106 0 194 -56t137 -157l40 188h269l-184 -885q-45 -213 -76 -304t-71 -145 t-101 -90.5t-144 -52.5t-180 -16q-225 0 -340 77t-115 256zM405 457q0 -121 54.5 -184.5t136.5 -63.5q75 0 145.5 57t108 162t37.5 203q0 113 -61 182t-141 69q-77 0 -141.5 -61t-106.5 -188q-32 -98 -32 -176z" />
<glyph unicode="h" horiz-adv-x="1251" d="M86 0l307 1466h287l-110 -522q97 76 181 109.5t180 33.5q129 0 204 -74t75 -194q0 -64 -28 -198l-130 -621h-287l133 633q21 103 21 132q0 53 -33 85t-90 32q-72 0 -138 -50q-86 -66 -131 -162q-25 -53 -66 -249l-88 -421h-287z" />
<glyph unicode="i" horiz-adv-x="569" d="M82 0l222 1062h287l-222 -1062h-287zM334 1206l54 260h287l-54 -260h-287z" />
<glyph unicode="j" horiz-adv-x="569" d="M-224 -399l45 237q69 -17 116 -17q58 0 93 45t92 316l184 880h288l-189 -899q-80 -385 -137 -467q-86 -127 -276 -127q-118 0 -216 32zM336 1206l54 260h288l-54 -260h-288z" />
<glyph unicode="k" d="M77 0l307 1466h287l-160 -763l374 359h373l-427 -386l227 -676h-287l-146 491l-194 -172l-67 -319h-287z" />
<glyph unicode="l" horiz-adv-x="569" d="M80 0l307 1466h286l-306 -1466h-287z" />
<glyph unicode="m" horiz-adv-x="1821" d="M73 0l222 1062h270l-27 -129q158 154 332 154q120 0 185 -50t83 -138q55 80 158 134t214 54q127 0 198 -68t71 -180q0 -55 -28 -190l-136 -649h-287l136 649q25 122 25 138q0 44 -26.5 69.5t-79.5 25.5q-107 0 -191 -113q-61 -81 -104 -287l-101 -482h-287l134 642 q23 111 23 144q0 42 -28.5 69t-78.5 27q-47 0 -97 -28t-87.5 -77t-64.5 -126q-12 -36 -39 -163l-102 -488h-287z" />
<glyph unicode="n" horiz-adv-x="1251" d="M86 0l222 1062h272l-28 -138q102 88 190.5 125.5t186.5 37.5q131 0 206.5 -75t75.5 -199q0 -56 -33 -212l-125 -601h-287l126 603q28 135 28 161q0 55 -32.5 86.5t-90.5 31.5q-63 0 -140 -53t-121 -140q-32 -62 -72 -253l-91 -436h-287z" />
<glyph unicode="o" horiz-adv-x="1251" d="M124 441q0 295 166.5 470.5t437.5 175.5q235 0 367 -129.5t132 -348.5q0 -258 -165 -446t-442 -188q-150 0 -266 60t-173 170t-57 236zM412 445q0 -114 62 -181t156 -67q118 0 198 101q114 143 114 348q0 102 -59.5 163.5t-153.5 61.5q-93 0 -165 -57.5t-112 -167 t-40 -201.5z" />
<glyph unicode="p" horiz-adv-x="1251" d="M-11 -405l306 1467h272l-23 -109q87 72 163 103t163 31q167 0 268.5 -115t101.5 -343q0 -287 -175 -485q-150 -169 -355 -169q-211 0 -319 171l-115 -551h-287zM468 453q0 -124 60.5 -192.5t142.5 -68.5q71 0 137 51.5t109.5 171t43.5 221.5q0 119 -57 182.5t-145 63.5 q-82 0 -149.5 -58.5t-104.5 -172t-37 -198.5z" />
<glyph unicode="q" horiz-adv-x="1251" d="M122 417q0 171 69 333t191.5 249.5t265.5 87.5q230 0 333 -192l35 167h264l-306 -1467h-287l103 495q-76 -62 -143 -88.5t-152 -26.5q-169 0 -271 113t-102 329zM399 422q0 -107 58 -170t140 -63q73 0 141 49.5t110.5 163.5t42.5 219q0 119 -61 186.5t-141 67.5 q-66 0 -134.5 -52t-112 -171.5t-43.5 -229.5z" />
<glyph unicode="r" horiz-adv-x="797" d="M66 0l222 1062h268l-43 -206q150 231 325 231q62 0 133 -31l-110 -235q-39 14 -83 14q-74 0 -150.5 -56t-119.5 -149.5t-85 -296.5l-70 -333h-287z" />
<glyph unicode="s" d="M45 297l278 44q37 -88 92 -124.5t150 -36.5q98 0 157 44q41 30 41 73q0 29 -21 52q-22 22 -119 54q-260 86 -322 136q-97 78 -97 204t94 217q131 127 389 127q205 0 310 -75t133 -203l-265 -46q-21 58 -68 87q-64 39 -154 39t-129.5 -30t-39.5 -69q0 -40 40 -66 q25 -16 161 -56q210 -61 281 -120q100 -83 100 -200q0 -151 -127 -262t-358 -111q-230 0 -355.5 84.5t-170.5 237.5z" />
<glyph unicode="t" horiz-adv-x="682" d="M154 849l44 213h140l35 170l329 198l-77 -368h175l-44 -213h-176l-93 -445q-25 -121 -25 -138q0 -33 21 -51.5t76 -18.5q19 0 95 7l-45 -213q-74 -15 -152 -15q-152 0 -221 58.5t-69 162.5q0 49 37 226l89 427h-139z" />
<glyph unicode="u" horiz-adv-x="1251" d="M144 251q0 55 34 219l124 592h287l-131 -629q-24 -113 -24 -141q0 -46 34 -79t87 -33q38 0 75 14.5t76 44t70 67.5t58 100q19 46 41 150l106 506h287l-222 -1062h-268l30 144q-176 -169 -383 -169q-131 0 -206 75t-75 201z" />
<glyph unicode="v" d="M153 1062h282l75 -463q31 -188 37 -250q8 17 69.5 129.5t75.5 135.5l264 448h310l-653 -1062h-247z" />
<glyph unicode="w" horiz-adv-x="1593" d="M147 1062h255l74 -712l331 712h261l36 -712l329 712h288l-529 -1062h-270l-52 676l-324 -676h-266z" />
<glyph unicode="x" d="M-45 0l491 544l-270 518h305l155 -303l269 303h349l-493 -551l268 -511h-305l-153 298l-264 -298h-352z" />
<glyph unicode="y" d="M13 -399l25 214q52 -15 101 -15q132 0 217 200l-185 1062h286l72 -529q27 -204 30 -286q56 163 154 344l254 471h304l-656 -1166q-81 -145 -127.5 -203t-112 -91t-157.5 -33q-91 0 -205 32z" />
<glyph unicode="z" horiz-adv-x="1024" d="M34 0l41 194l582 644h-475l47 224h833l-35 -171l-587 -659h511l-49 -232h-868z" />
<glyph unicode="{" horiz-adv-x="797" d="M86 410l52 240q73 4 115.5 22.5t78.5 63t58 103.5t49 187q38 183 77 260t93.5 119.5t149.5 68.5q63 17 193 17h52l-51 -239q-114 0 -151 -14.5t-55 -44.5q-14 -21 -45 -147q-56 -222 -75 -270q-36 -87 -85 -141.5t-138 -104.5q59 -39 87 -94.5t28 -145.5q0 -35 -12 -107 q-33 -195 -41.5 -231t-8.5 -60q0 -27 14.5 -46t42.5 -28t125 -9l-52 -240h-53q-138 0 -206 22.5t-105 74.5t-37 134q0 67 35 226.5t35 212.5q0 87 -37.5 126.5t-132.5 44.5z" />
<glyph unicode="|" horiz-adv-x="573" d="M176 -431v1922h223v-1922h-223z" />
<glyph unicode="}" horiz-adv-x="797" d="M-174 -431l52 240q108 0 147 15t59 46q14 21 45 144q55 220 72 264q35 87 89 148.5t136 103.5q-66 49 -91 100t-25 140q0 36 12 106q32 192 41 231.5t9 66.5t-12.5 44t-41 25.5t-128.5 8.5l52 239h53q138 0 206 -22.5t105 -74t37 -132.5q0 -68 -35 -227.5t-35 -212.5 q0 -87 37.5 -127t133.5 -45l-52 -240q-89 -4 -140.5 -36t-88.5 -103.5t-73 -245t-75 -250.5t-93.5 -119.5t-148.5 -68.5q-64 -18 -194 -18h-53z" />
<glyph unicode="~" horiz-adv-x="1196" d="M137 519v259q71 77 155 112q61 26 145 26q63 0 121 -15t209 -77q100 -41 158 -41q143 0 274 141v-270q-48 -50 -131.5 -92t-160.5 -42q-51 0 -102.5 13t-152.5 58q-154 67 -242 67q-140 0 -273 -139z" />
<glyph unicode="&#xa1;" horiz-adv-x="682" d="M24 -404l77 370l231 723h158l-92 -749l-72 -344h-302zM282 784l58 278h284l-58 -278h-284z" />
<glyph unicode="&#xa2;" d="M120 431q0 180 76 334.5t220 238t305 83.5q30 0 64 -3l155 378l121 -49l-147 -359q103 -41 167 -125t71 -198l-252 -26q-10 95 -69 148l-271 -661q11 -1 16 -1q68 0 130 48t107 160l264 -41q-64 -184 -198.5 -283.5t-308.5 -99.5q-44 0 -96 8l-155 -378l-122 48l150 365 q-102 47 -164.5 155t-62.5 258zM390 404q0 -108 49 -161l268 651q-96 -6 -170 -75t-110.5 -189.5t-36.5 -225.5z" />
<glyph unicode="&#xa3;" d="M42 222q100 43 174.5 120t106.5 146q24 50 33 129h-230l47 224h160q-17 86 -17 164q0 209 141 347.5t359 138.5q190 0 305.5 -107t128.5 -289l-257 -25q-17 107 -65.5 153t-122.5 46q-92 0 -158.5 -75.5t-66.5 -210.5q0 -50 15 -142h253l-47 -224h-195 q-6 -113 -52 -201.5t-160 -191.5q74 30 148 30q38 0 98 -11q86 -16 136 -16q111 0 228 53l86 -244q-87 -36 -136 -47q-65 -14 -133 -14q-98 0 -233.5 37t-221.5 37q-137 0 -294 -86z" />
<glyph unicode="&#xa4;" d="M135 1072l166 178l136 -136q53 29 107.5 43t110.5 14q57 0 112 -14t107 -43l134 134l167 -169l-132 -133q28 -51 42 -105.5t14 -112.5q0 -57 -14 -111.5t-42 -106.5l134 -133l-167 -171l-136 136q-50 -28 -104.5 -42.5t-113.5 -14.5q-56 0 -110 14t-106 42l-130 -131 l-170 168l130 132q-28 52 -42.5 106.5t-14.5 111.5t13.5 110.5t40.5 102.5zM454 728q0 -84 59.5 -143t142.5 -59q84 0 143 59t59 143t-59 143t-143 59t-143 -59t-59 -143z" />
<glyph unicode="&#xa5;" d="M49 278l40 193h373l27 127h-373l40 193h272l-204 675h292l71 -259q27 -101 79 -368q121 241 245 432l127 195h327l-463 -675h279l-40 -193h-369l-26 -127h368l-40 -193h-368l-59 -278h-283l58 278h-373z" />
<glyph unicode="&#xa6;" horiz-adv-x="573" d="M176 360h223v-791h-223v791zM176 701v790h223v-790h-223z" />
<glyph unicode="&#xa7;" d="M44 -87l261 59q27 -110 79 -155.5t129 -45.5q68 0 103 32t35 79q0 34 -27.5 77.5t-260.5 267.5q-124 118 -174 198.5t-50 172.5q0 118 67 205.5t201 159.5q-60 97 -60 191q0 138 101 237.5t301 99.5q181 0 279 -85t119 -256l-259 -25q-6 88 -45.5 128t-104.5 40 q-61 0 -96.5 -35t-35.5 -91q0 -41 24 -82t148 -153q214 -192 264 -281t50 -179q0 -104 -66 -197t-194 -157q84 -117 84 -223q0 -135 -108.5 -232t-300.5 -97q-188 0 -310.5 96t-152.5 251zM387 636q0 -48 34 -95q22 -29 172 -174q105 -101 113 -109q71 27 116 82 q29 35 29 80q0 38 -24 80.5t-108 123.5q-185 180 -198 195q-79 -49 -106.5 -91.5t-27.5 -91.5z" />
<glyph unicode="&#xa8;" horiz-adv-x="682" d="M173 1223l51 245h246l-51 -245h-246zM594 1223l51 245h246l-51 -245h-246z" />
<glyph unicode="&#xa9;" horiz-adv-x="1509" d="M89 730q0 201 103.5 384.5t284.5 282.5t378 99t378 -99t284.5 -282.5t103.5 -384.5q0 -200 -101.5 -381.5t-283 -283t-381.5 -101.5t-381.5 101.5t-283 283t-101.5 381.5zM240 730q0 -160 81.5 -306t227.5 -227.5t306 -81.5t306 81.5t227.5 227.5t81.5 306q0 161 -83 309 t-228.5 227t-303.5 79t-303.5 -79t-228.5 -226.5t-83 -309.5zM479 723q0 129 48 230t138.5 151t202.5 50q123 0 205.5 -58.5t128.5 -184.5l-162 -38q-28 73 -72.5 106t-105.5 33q-91 0 -149 -68.5t-58 -214.5t57 -215t137 -69q67 0 116 39.5t76 131.5l161 -54 q-38 -126 -126 -193t-210 -67q-171 0 -279 112t-108 309z" />
<glyph unicode="&#xaa;" horiz-adv-x="758" d="M168 946q0 80 46.5 135t137.5 78q58 14 284 37q14 53 14 81q0 25 -21 41.5t-67 16.5q-90 0 -135 -82l-192 26q42 102 126 157t211 55q140 0 206 -56.5t66 -141.5q0 -70 -41.5 -229.5t-41.5 -200.5q0 -53 21 -104h-192q-8 22 -11 47q-91 -63 -197 -63q-98 0 -156 57.5 t-58 145.5zM364 954q0 -28 21 -47.5t56 -19.5q54 0 91 34.5t60 132.5q-163 -19 -195.5 -41.5t-32.5 -58.5z" />
<glyph unicode="&#xab;" d="M168 552l412 425h241l-361 -444l132 -462h-201zM577 553l389 424h244l-354 -446l127 -460h-206z" />
<glyph unicode="&#xac;" horiz-adv-x="1196" d="M165 817v257h1025v-698h-257v441h-768z" />
<glyph unicode="&#xad;" horiz-adv-x="682" d="M79 390l58 277h557l-58 -277h-557z" />
<glyph unicode="&#xae;" horiz-adv-x="1509" d="M89 730q0 201 103.5 385t284.5 282.5t378 98.5t378 -98.5t284.5 -282.5t103.5 -385q0 -200 -101.5 -381.5t-283 -283t-381.5 -101.5t-381.5 101.5t-283 283t-101.5 381.5zM241 730q0 -161 81.5 -307t227.5 -228t306 -82q161 0 306.5 82t227.5 228t82 307q0 162 -83.5 310 t-229 227t-303.5 79t-303 -79t-228.5 -227t-83.5 -310zM509 320v813h165q232 0 260 -2q82 -7 127.5 -32.5t76 -78t30.5 -116.5q0 -88 -57.5 -150.5t-161.5 -77.5q37 -14 57 -30.5t55 -62.5q9 -12 60 -99l96 -164h-204l-68 132q-69 133 -114 167.5t-114 34.5h-43v-334h-165z M674 782h67q143 0 177.5 11t54.5 38.5t20 62.5q0 34 -19.5 60.5t-55.5 38t-177 11.5h-67v-222z" />
<glyph unicode="&#xaf;" horiz-adv-x="1131" d="M140 1552v183h1168v-183h-1168z" />
<glyph unicode="&#xb0;" horiz-adv-x="819" d="M225 1172q0 133 93.5 226t225.5 93t225.5 -93.5t93.5 -225.5t-93.5 -225.5t-225.5 -93.5t-225.5 93.5t-93.5 225.5zM391 1172q0 -63 45 -108t108 -45t108 45t45 108t-45 108t-108 45t-108 -45t-45 -108z" />
<glyph unicode="&#xb1;" horiz-adv-x="1124" d="M130 0v263h1025v-263h-1025zM130 737v263h384v381h256v-381h385v-263h-385v-381h-256v381h-384z" />
<glyph unicode="&#xb2;" horiz-adv-x="682" d="M168 727q13 87 58.5 150t217.5 201q132 104 155.5 139t23.5 59q0 29 -21 49t-58 20q-39 0 -65 -25t-42 -94l-189 23q22 115 96.5 175t195.5 60q132 0 201.5 -61t69.5 -148q0 -62 -46 -132t-215 -192q-26 -18 -78 -66h284l-39 -158h-549z" />
<glyph unicode="&#xb3;" horiz-adv-x="682" d="M156 944l186 18q10 -61 32.5 -82t64.5 -21q56 0 88.5 30t32.5 72q0 37 -25.5 60t-73.5 23q-17 0 -46 -5l38 150q18 -2 30 -2q62 0 92 26.5t30 66.5q0 28 -17 43q-22 19 -58 19q-35 0 -60.5 -22t-42.5 -79l-180 30q34 93 81 135q85 78 215 78q122 0 188.5 -59t66.5 -141 q0 -43 -19 -81.5t-49 -57.5q-41 -25 -48 -31l-1 -7q4 -6 35 -34q40 -37 40 -109q0 -91 -89.5 -170t-228.5 -79q-122 0 -193.5 59t-88.5 170z" />
<glyph unicode="&#xb4;" horiz-adv-x="682" d="M376 1196l209 300h306l-324 -300h-191z" />
<glyph unicode="&#xb5;" horiz-adv-x="1180" d="M-76 -411l311 1473h287l-102 -492l-26 -120q-6 -41 -6 -79q0 -82 47.5 -132t116.5 -50q79 0 141 62.5t103 254.5l117 556h284l-224 -1062h-256l21 99q-79 -81 -122 -102.5t-93 -21.5q-66 0 -112.5 31t-89.5 107l-110 -524h-287z" />
<glyph unicode="&#xb6;" d="M90 1052q0 105 41 192.5t110.5 138.5t163.5 71q56 12 219 12h597v-261h-113v-1608h-237v1608h-144v-1608h-243v1047q-190 14 -292 122t-102 286z" />
<glyph unicode="&#xb7;" horiz-adv-x="682" d="M280 594l58 278h283l-57 -278h-284z" />
<glyph unicode="&#xb8;" horiz-adv-x="682" d="M14 -421l48 116l57 -1q85 0 163 24q49 15 66 35.5t17 42.5q0 29 -26.5 49.5t-89.5 20.5q-32 0 -90 -9l34 99q72 18 131 18q110 0 166.5 -48t56.5 -117q0 -84 -88 -146q-122 -88 -348 -88q-63 0 -97 4z" />
<glyph unicode="&#xb9;" horiz-adv-x="682" d="M235 1141l39 155q123 48 175 75q102 54 170 115h122l-188 -759h-196l123 492q-118 -56 -245 -78z" />
<glyph unicode="&#xba;" horiz-adv-x="748" d="M148 1050q0 171 105 306t280 135q141 0 228.5 -86.5t87.5 -220.5q0 -96 -48.5 -208t-138 -173t-204.5 -61q-140 0 -225 85.5t-85 222.5zM350 1026q0 -53 30 -84t79 -31q82 0 134 97.5t52 200.5q0 54 -29.5 84.5t-78.5 30.5q-82 0 -134.5 -95t-52.5 -203z" />
<glyph unicode="&#xbb;" d="M46 71l353 447l-126 459h206l200 -481l-389 -425h-244zM435 71l361 445l-133 461h202l223 -480l-413 -426h-240z" />
<glyph unicode="&#xbc;" horiz-adv-x="1708" d="M204 -61l1342 1545h174l-1342 -1545h-174zM235 1139l39 155q123 48 175 75q102 55 170 115h122l-188 -758h-196l123 491q-118 -56 -245 -78zM1025 106l35 141l474 465h167l-114 -466h105l-37 -140h-105l-37 -148h-173l37 148h-352zM1248 246h167l60 227z" />
<glyph unicode="&#xbd;" horiz-adv-x="1708" d="M174 -61l1342 1545h174l-1342 -1545h-174zM235 1139l39 155q6 3 15 6q201 70 330 184h123l-189 -758h-196l123 491l-20 -9q-98 -47 -225 -69zM1068 -42q12 86 58 149.5t218 200.5q131 105 155 140t24 59q0 29 -21.5 48.5t-57.5 19.5q-39 0 -65 -24.5t-42 -93.5l-190 23 q23 115 97 175t196 60q132 0 201.5 -61t69.5 -148q0 -62 -46.5 -132t-214.5 -192q-26 -19 -78 -66h284l-39 -158h-549z" />
<glyph unicode="&#xbe;" horiz-adv-x="1708" d="M155 944l186 18q10 -61 32.5 -82t64.5 -21q56 0 88.5 30t32.5 72q0 37 -25.5 60t-73.5 23q-17 0 -46 -5l38 150q18 -2 30 -2q62 0 92 26.5t30 66.5q0 28 -17 43q-22 19 -58 19q-35 0 -60.5 -22t-42.5 -79l-180 30q34 93 81 135q85 78 215 78q122 0 188.5 -59t66.5 -141 q0 -43 -19 -81.5t-49 -57.5q-41 -25 -48 -31l-1 -7q4 -6 35 -34q40 -37 40 -109q0 -91 -89.5 -170t-228.5 -79q-122 0 -193.5 59t-88.5 170zM228 -61l1342 1545h174l-1342 -1545h-174zM1025 106l35 141l474 465h166l-113 -466h104l-37 -140h-105l-37 -148h-172l37 148h-352z M1248 246h166l61 227z" />
<glyph unicode="&#xbf;" horiz-adv-x="1251" d="M55 -62q0 89 52 176t285 281q146 122 180 170t49 131h258q-20 -134 -83.5 -232.5t-254.5 -264.5q-161 -140 -189.5 -185.5t-28.5 -87.5q0 -62 49 -103t150 -41q112 0 183 61t102 194l262 -46q-50 -194 -196.5 -307t-355.5 -113q-218 0 -340 108.5t-122 258.5zM625 784 l58 278h284l-58 -278h-284z" />
<glyph unicode="&#xc0;" horiz-adv-x="1479" d="M-23 0l829 1466h335l238 -1466h-286l-49 324h-581l-176 -324h-310zM568 568h439l-85 590zM758 1854h276l128 -299h-194z" />
<glyph unicode="&#xc1;" horiz-adv-x="1479" d="M-23 0l829 1466h335l238 -1466h-286l-49 324h-581l-176 -324h-310zM568 568h439l-85 590zM890 1551l209 300h306l-324 -300h-191z" />
<glyph unicode="&#xc2;" horiz-adv-x="1479" d="M-23 0l829 1466h335l238 -1466h-286l-49 324h-581l-176 -324h-310zM568 568h439l-85 590zM599 1553l297 301h268l122 -301h-198l-77 178l-176 -178h-236z" />
<glyph unicode="&#xc3;" horiz-adv-x="1479" d="M-23 0l829 1466h335l238 -1466h-286l-49 324h-581l-176 -324h-310zM568 568h439l-85 590zM638 1548q27 122 64 171q54 70 134 70q52 0 186 -49q78 -28 107 -28q23 0 39 14.5t30 63.5h128q-19 -123 -75.5 -181.5t-126.5 -58.5q-45 0 -144 40t-126 40q-30 0 -52 -17.5 t-38 -64.5h-126z" />
<glyph unicode="&#xc4;" horiz-adv-x="1479" d="M-23 0l829 1466h335l238 -1466h-286l-49 324h-581l-176 -324h-310zM568 568h439l-85 590zM676 1549l51 245h246l-51 -245h-246zM1097 1549l51 245h246l-51 -245h-246z" />
<glyph unicode="&#xc5;" horiz-adv-x="1479" d="M-23 -19l829 1466h335l238 -1466h-286l-49 324h-581l-176 -324h-310zM568 549h439l-85 590zM781 1556q0 80 56.5 136.5t136.5 56.5t136.5 -56.5t56.5 -136.5t-56.5 -136.5t-136.5 -56.5t-136.5 56.5t-56.5 136.5zM890 1556q0 -35 24.5 -59.5t59.5 -24.5t59.5 24.5 t24.5 59.5t-24.5 60t-59.5 25t-59.5 -25t-24.5 -60z" />
<glyph unicode="&#xc6;" horiz-adv-x="2048" d="M-66 0l852 1466h1383l-51 -245h-718l-70 -335h690l-52 -245h-689l-83 -396h775l-51 -245h-1056l77 367h-489l-208 -367h-310zM594 612h398l127 609h-179z" />
<glyph unicode="&#xc7;" horiz-adv-x="1479" d="M194 606q0 250 101.5 457.5t281.5 317.5t392 110q238 0 385 -127.5t173 -347.5l-289 -28q-24 128 -92.5 185.5t-182.5 57.5q-125 0 -233.5 -76t-173.5 -237.5t-65 -322.5q0 -176 84.5 -272t210.5 -96q117 0 214.5 76t145.5 225l304 -46q-89 -247 -267 -377.5t-417 -130.5 q-269 0 -420.5 162t-151.5 470zM406 -415l48 116l57 -1q85 0 163 24q49 15 66 35.5t17 42.5q0 29 -26.5 49.5t-89.5 20.5q-32 0 -90 -9l34 99q72 18 131 18q110 0 166.5 -48t56.5 -117q0 -84 -88 -146q-122 -88 -348 -88q-63 0 -97 4z" />
<glyph unicode="&#xc8;" horiz-adv-x="1366" d="M84 0l306 1466h1087l-51 -245h-785l-70 -333h759l-51 -245h-759l-92 -398h853l-52 -245h-1145zM781 1854h276l128 -299h-194z" />
<glyph unicode="&#xc9;" horiz-adv-x="1366" d="M84 0l306 1466h1087l-51 -245h-785l-70 -333h759l-51 -245h-759l-92 -398h853l-52 -245h-1145zM866 1551l209 300h306l-324 -300h-191z" />
<glyph unicode="&#xca;" horiz-adv-x="1366" d="M84 0l306 1466h1087l-51 -245h-785l-70 -333h759l-51 -245h-759l-92 -398h853l-52 -245h-1145zM566 1553l297 301h268l122 -301h-198l-77 178l-176 -178h-236z" />
<glyph unicode="&#xcb;" horiz-adv-x="1366" d="M84 0l306 1466h1087l-51 -245h-785l-70 -333h759l-51 -245h-759l-92 -398h853l-52 -245h-1145zM628 1549l51 245h246l-51 -245h-246zM1049 1549l51 245h246l-51 -245h-246z" />
<glyph unicode="&#xcc;" horiz-adv-x="569" d="M71 0l307 1466h301l-306 -1466h-302zM380 1854h276l128 -299h-194z" />
<glyph unicode="&#xcd;" horiz-adv-x="569" d="M71 0l307 1466h301l-306 -1466h-302zM409 1551l209 300h306l-324 -300h-191z" />
<glyph unicode="&#xce;" horiz-adv-x="569" d="M71 0l307 1466h301l-306 -1466h-302zM186 1553l297 301h268l122 -301h-198l-77 178l-176 -178h-236z" />
<glyph unicode="&#xcf;" horiz-adv-x="569" d="M71 0l307 1466h301l-306 -1466h-302zM209 1549l51 245h246l-51 -245h-246zM630 1549l51 245h246l-51 -245h-246z" />
<glyph unicode="&#xd0;" horiz-adv-x="1479" d="M75 641l38 178h150l138 647h390q166 0 212 -5q91 -9 162.5 -37t129.5 -78.5t101 -121.5t66 -163.5t23 -202.5q0 -238 -90 -418.5t-208.5 -277.5t-284.5 -138q-96 -24 -296 -24h-517l137 641h-151zM441 236h152q166 0 240.5 20.5t136.5 76.5q90 82 150.5 216.5t60.5 317.5 q0 156 -50.5 234.5t-123.5 104.5q-53 18 -186 18h-170l-86 -405h313l-38 -177h-313z" />
<glyph unicode="&#xd1;" horiz-adv-x="1479" d="M92 0l306 1466h282l397 -981l205 981h280l-306 -1466h-281l-396 985l-206 -985h-281zM656 1548q27 122 64 171q54 70 134 70q52 0 186 -49q78 -28 107 -28q23 0 39 14.5t30 63.5h128q-19 -123 -75.5 -181.5t-126.5 -58.5q-45 0 -144 40t-126 40q-30 0 -52 -17.5 t-38 -64.5h-126z" />
<glyph unicode="&#xd2;" horiz-adv-x="1593" d="M179 575q0 130 39 274q51 193 155.5 335t263.5 224.5t362 82.5q272 0 439.5 -169t167.5 -448q0 -232 -109 -449t-296 -334t-423 -117q-205 0 -344 93t-197 230.5t-58 277.5zM477 581q0 -151 92 -253t242 -102q122 0 234.5 80.5t186 244t73.5 318.5q0 173 -93 271.5 t-237 98.5q-221 0 -359.5 -206t-138.5 -452zM771 1854h276l128 -299h-194z" />
<glyph unicode="&#xd3;" horiz-adv-x="1593" d="M179 575q0 130 39 274q51 193 155.5 335t263.5 224.5t362 82.5q272 0 439.5 -169t167.5 -448q0 -232 -109 -449t-296 -334t-423 -117q-205 0 -344 93t-197 230.5t-58 277.5zM477 581q0 -151 92 -253t242 -102q122 0 234.5 80.5t186 244t73.5 318.5q0 173 -93 271.5 t-237 98.5q-221 0 -359.5 -206t-138.5 -452zM950 1551l209 300h306l-324 -300h-191z" />
<glyph unicode="&#xd4;" horiz-adv-x="1593" d="M179 575q0 130 39 274q51 193 155.5 335t263.5 224.5t362 82.5q272 0 439.5 -169t167.5 -448q0 -232 -109 -449t-296 -334t-423 -117q-205 0 -344 93t-197 230.5t-58 277.5zM477 581q0 -151 92 -253t242 -102q122 0 234.5 80.5t186 244t73.5 318.5q0 173 -93 271.5 t-237 98.5q-221 0 -359.5 -206t-138.5 -452zM681 1553l297 301h268l122 -301h-198l-77 178l-176 -178h-236z" />
<glyph unicode="&#xd5;" horiz-adv-x="1593" d="M179 575q0 130 39 274q51 193 155.5 335t263.5 224.5t362 82.5q272 0 439.5 -169t167.5 -448q0 -232 -109 -449t-296 -334t-423 -117q-205 0 -344 93t-197 230.5t-58 277.5zM477 581q0 -151 92 -253t242 -102q122 0 234.5 80.5t186 244t73.5 318.5q0 173 -93 271.5 t-237 98.5q-221 0 -359.5 -206t-138.5 -452zM674 1548q27 122 64 171q54 70 134 70q52 0 186 -49q78 -28 107 -28q23 0 39 14.5t30 63.5h128q-19 -123 -75.5 -181.5t-126.5 -58.5q-45 0 -144 40t-126 40q-30 0 -52 -17.5t-38 -64.5h-126z" />
<glyph unicode="&#xd6;" horiz-adv-x="1593" d="M179 575q0 130 39 274q51 193 155.5 335t263.5 224.5t362 82.5q272 0 439.5 -169t167.5 -448q0 -232 -109 -449t-296 -334t-423 -117q-205 0 -344 93t-197 230.5t-58 277.5zM477 581q0 -151 92 -253t242 -102q122 0 234.5 80.5t186 244t73.5 318.5q0 173 -93 271.5 t-237 98.5q-221 0 -359.5 -206t-138.5 -452zM658 1549l51 245h246l-51 -245h-246zM1079 1549l51 245h246l-51 -245h-246z" />
<glyph unicode="&#xd7;" horiz-adv-x="1196" d="M189 1025l186 186l304 -303l302 302l181 -182l-302 -302l305 -305l-186 -186l-305 305l-302 -302l-181 182l302 302z" />
<glyph unicode="&#xd8;" horiz-adv-x="1593" d="M159 -8l150 180q-138 167 -138 398q0 234 105 460t292 343.5t421 117.5q206 0 344 -89l140 168l138 -114l-144 -173q131 -160 131 -410q0 -238 -112.5 -455t-298 -330t-411.5 -113q-198 0 -329 80l-147 -177zM470 591q0 -95 36 -182l646 775q-79 55 -186 55 q-125 0 -241 -83t-185.5 -245t-69.5 -320zM627 272q84 -55 181 -55q118 0 230.5 80t189 244t76.5 332q0 81 -39 167z" />
<glyph unicode="&#xd9;" horiz-adv-x="1479" d="M187 423q0 41 7 89q4 32 35 182l162 772h301l-166 -796l-41 -196q-4 -25 -4 -47q0 -87 63.5 -143.5t184.5 -56.5q109 0 180 41t110 122t79 275l168 801h301l-167 -802q-53 -253 -122 -387t-209 -218t-354 -84q-256 0 -392 125.5t-136 322.5zM737 1854h276l128 -299h-194z " />
<glyph unicode="&#xda;" horiz-adv-x="1479" d="M187 423q0 41 7 89q4 32 35 182l162 772h301l-166 -796l-41 -196q-4 -25 -4 -47q0 -87 63.5 -143.5t184.5 -56.5q109 0 180 41t110 122t79 275l168 801h301l-167 -802q-53 -253 -122 -387t-209 -218t-354 -84q-256 0 -392 125.5t-136 322.5zM793 1551l209 300h306 l-324 -300h-191z" />
<glyph unicode="&#xdb;" horiz-adv-x="1479" d="M187 423q0 41 7 89q4 32 35 182l162 772h301l-166 -796l-41 -196q-4 -25 -4 -47q0 -87 63.5 -143.5t184.5 -56.5q109 0 180 41t110 122t79 275l168 801h301l-167 -802q-53 -253 -122 -387t-209 -218t-354 -84q-256 0 -392 125.5t-136 322.5zM605 1553l297 301h268 l122 -301h-198l-77 178l-176 -178h-236z" />
<glyph unicode="&#xdc;" horiz-adv-x="1479" d="M187 423q0 41 7 89q4 32 35 182l162 772h301l-166 -796l-41 -196q-4 -25 -4 -47q0 -87 63.5 -143.5t184.5 -56.5q109 0 180 41t110 122t79 275l168 801h301l-167 -802q-53 -253 -122 -387t-209 -218t-354 -84q-256 0 -392 125.5t-136 322.5zM643 1549l51 245h246 l-51 -245h-246zM1064 1549l51 245h246l-51 -245h-246z" />
<glyph unicode="&#xdd;" horiz-adv-x="1366" d="M235 1466h321l182 -414q65 -149 87 -215q37 65 86 138l139 194l207 297h350l-672 -923l-114 -543h-301l119 571zM833 1551l209 300h306l-324 -300h-191z" />
<glyph unicode="&#xde;" horiz-adv-x="1366" d="M83 0l312 1466h301l-59 -280h289q133 0 188 -10q74 -14 132.5 -58.5t95.5 -125.5t37 -178q0 -105 -43 -210.5t-106 -169t-135.5 -96t-195.5 -49.5q-69 -9 -263 -9h-194l-57 -280h-302zM494 522h92q239 0 319 30.5t126 97t46 145.5q0 49 -25 86t-63.5 50.5t-190.5 13.5 h-214z" />
<glyph unicode="&#xdf;" horiz-adv-x="1251" d="M72 0l201 961q42 198 89.5 293t164 166t295.5 71q185 0 277 -80t92 -199q0 -57 -24 -110.5t-96 -138.5t-88.5 -115.5t-16.5 -54.5q0 -25 12 -50q20 -38 94 -137t96 -153.5t22 -117.5q0 -90 -46.5 -177.5t-131.5 -135t-191 -47.5q-110 0 -207.5 54.5t-157.5 140.5l204 115 q29 -42 57 -58.5t65 -16.5q52 0 86 34t34 85q0 33 -13.5 63t-65.5 96q-90 112 -117 171.5t-27 108.5q0 46 23.5 100t114.5 176q47 63 58.5 89t11.5 52q0 41 -26.5 66.5t-72.5 25.5q-92 0 -152 -90q-41 -61 -86 -272l-191 -915h-287z" />
<glyph unicode="&#xe0;" d="M92 284q0 152 94.5 243t337.5 110q205 17 274 41q18 60 18 96q0 46 -37 77t-110 31q-77 0 -121.5 -31.5t-60.5 -89.5l-280 24q48 142 167.5 222t316.5 80q205 0 303 -82.5t98 -201.5q0 -48 -8.5 -102t-59.5 -284q-42 -190 -42 -266q0 -68 24 -151h-279q-17 58 -21 120 q-63 -70 -145 -107.5t-165 -37.5q-132 0 -218 86.5t-86 222.5zM362 309q0 -50 36 -84.5t95 -34.5q65 0 122.5 31.5t86 81t50.5 154.5l8 38q-26 -7 -69 -13q-216 -26 -282 -76q-47 -36 -47 -97zM520 1499h276l128 -299h-194z" />
<glyph unicode="&#xe1;" d="M92 284q0 152 94.5 243t337.5 110q205 17 274 41q18 60 18 96q0 46 -37 77t-110 31q-77 0 -121.5 -31.5t-60.5 -89.5l-280 24q48 142 167.5 222t316.5 80q205 0 303 -82.5t98 -201.5q0 -48 -8.5 -102t-59.5 -284q-42 -190 -42 -266q0 -68 24 -151h-279q-17 58 -21 120 q-63 -70 -145 -107.5t-165 -37.5q-132 0 -218 86.5t-86 222.5zM362 309q0 -50 36 -84.5t95 -34.5q65 0 122.5 31.5t86 81t50.5 154.5l8 38q-26 -7 -69 -13q-216 -26 -282 -76q-47 -36 -47 -97zM647 1196l209 300h306l-324 -300h-191z" />
<glyph unicode="&#xe2;" d="M92 284q0 152 94.5 243t337.5 110q205 17 274 41q18 60 18 96q0 46 -37 77t-110 31q-77 0 -121.5 -31.5t-60.5 -89.5l-280 24q48 142 167.5 222t316.5 80q205 0 303 -82.5t98 -201.5q0 -48 -8.5 -102t-59.5 -284q-42 -190 -42 -266q0 -68 24 -151h-279q-17 58 -21 120 q-63 -70 -145 -107.5t-165 -37.5q-132 0 -218 86.5t-86 222.5zM362 309q0 -50 36 -84.5t95 -34.5q65 0 122.5 31.5t86 81t50.5 154.5l8 38q-26 -7 -69 -13q-216 -26 -282 -76q-47 -36 -47 -97zM377 1197l297 301h268l122 -301h-198l-77 178l-176 -178h-236z" />
<glyph unicode="&#xe3;" d="M92 284q0 152 94.5 243t337.5 110q205 17 274 41q18 60 18 96q0 46 -37 77t-110 31q-77 0 -121.5 -31.5t-60.5 -89.5l-280 24q48 142 167.5 222t316.5 80q205 0 303 -82.5t98 -201.5q0 -48 -8.5 -102t-59.5 -284q-42 -190 -42 -266q0 -68 24 -151h-279q-17 58 -21 120 q-63 -70 -145 -107.5t-165 -37.5q-132 0 -218 86.5t-86 222.5zM362 309q0 -50 36 -84.5t95 -34.5q65 0 122.5 31.5t86 81t50.5 154.5l8 38q-26 -7 -69 -13q-216 -26 -282 -76q-47 -36 -47 -97zM438 1213q27 122 64 171q54 70 134 70q52 0 186 -49q78 -28 107 -28 q23 0 39 14.5t30 63.5h128q-19 -123 -75.5 -181.5t-126.5 -58.5q-45 0 -144 40t-126 40q-30 0 -52 -17.5t-38 -64.5h-126z" />
<glyph unicode="&#xe4;" d="M92 284q0 152 94.5 243t337.5 110q205 17 274 41q18 60 18 96q0 46 -37 77t-110 31q-77 0 -121.5 -31.5t-60.5 -89.5l-280 24q48 142 167.5 222t316.5 80q205 0 303 -82.5t98 -201.5q0 -48 -8.5 -102t-59.5 -284q-42 -190 -42 -266q0 -68 24 -151h-279q-17 58 -21 120 q-63 -70 -145 -107.5t-165 -37.5q-132 0 -218 86.5t-86 222.5zM362 309q0 -50 36 -84.5t95 -34.5q65 0 122.5 31.5t86 81t50.5 154.5l8 38q-26 -7 -69 -13q-216 -26 -282 -76q-47 -36 -47 -97zM416 1223l51 245h246l-51 -245h-246zM837 1223l51 245h246l-51 -245h-246z" />
<glyph unicode="&#xe5;" d="M92 284q0 152 94.5 243t337.5 110q205 17 274 41q18 60 18 96q0 46 -37 77t-110 31q-77 0 -121.5 -31.5t-60.5 -89.5l-280 24q48 142 167.5 222t316.5 80q205 0 303 -82.5t98 -201.5q0 -48 -8.5 -102t-59.5 -284q-42 -190 -42 -266q0 -68 24 -151h-279q-17 58 -21 120 q-63 -70 -145 -107.5t-165 -37.5q-132 0 -218 86.5t-86 222.5zM362 309q0 -50 36 -84.5t95 -34.5q65 0 122.5 31.5t86 81t50.5 154.5l8 38q-26 -7 -69 -13q-216 -26 -282 -76q-47 -36 -47 -97zM538 1351q0 80 56.5 136.5t136.5 56.5t136.5 -56.5t56.5 -136.5t-56.5 -136.5 t-136.5 -56.5t-136.5 56.5t-56.5 136.5zM647 1351q0 -35 24.5 -59.5t59.5 -24.5t59.5 24.5t24.5 59.5t-24.5 60t-59.5 25t-59.5 -25t-24.5 -60z" />
<glyph unicode="&#xe6;" horiz-adv-x="1821" d="M63 286q0 119 57.5 198t145 109.5t250.5 45.5q212 19 272 42q8 33 8 57q0 71 -39 107.5t-122 36.5q-75 0 -116.5 -29t-63.5 -95l-275 28q38 133 159.5 217t318.5 84q144 0 231 -42q62 -30 100 -91q138 133 353 133q195 0 313 -121t118 -334q0 -97 -19 -192h-732 q4 -116 67.5 -183t153.5 -67q144 0 221 138l258 -41q-172 -312 -490 -312q-282 0 -396 248q-184 -248 -439 -248q-154 0 -244 86.5t-90 224.5zM322 312q0 -49 37 -84t99 -35q94 0 167 71q97 92 126 237q-286 -31 -375 -92q-54 -37 -54 -97zM1045 615h467q1 20 1 33 q0 114 -53.5 174t-140.5 60q-93 0 -169.5 -68t-104.5 -199z" />
<glyph unicode="&#xe7;" d="M123 429q0 173 72 327t217 242.5t318 88.5q188 0 300 -98t126 -258l-273 -29q-10 89 -54.5 131t-116.5 42q-83 0 -155 -62t-110.5 -185.5t-38.5 -231.5q0 -94 46 -145t115 -51t133 50t100 150l279 -45q-69 -186 -204 -283t-313 -97q-203 0 -322 121t-119 333zM275 -413 l48 116l57 -1q85 0 163 24q49 15 66 35.5t17 42.5q0 29 -26.5 49.5t-89.5 20.5q-32 0 -90 -9l34 99q72 18 131 18q110 0 166.5 -48t56.5 -117q0 -84 -88 -146q-122 -88 -348 -88q-63 0 -97 4z" />
<glyph unicode="&#xe8;" d="M119 469q0 218 121 388q165 230 471 230q195 0 310 -120.5t115 -337.5q0 -104 -20 -187h-720q-1 -17 -1 -26q0 -106 60.5 -171t147.5 -65q143 0 223 148l257 -43q-75 -155 -200.5 -232.5t-281.5 -77.5q-214 0 -348 135.5t-134 358.5zM425 617h449q1 19 1 29 q0 118 -53 177t-142 59t-159.5 -67t-95.5 -198zM508 1499h276l128 -299h-194z" />
<glyph unicode="&#xe9;" d="M119 469q0 218 121 388q165 230 471 230q195 0 310 -120.5t115 -337.5q0 -104 -20 -187h-720q-1 -17 -1 -26q0 -106 60.5 -171t147.5 -65q143 0 223 148l257 -43q-75 -155 -200.5 -232.5t-281.5 -77.5q-214 0 -348 135.5t-134 358.5zM425 617h449q1 19 1 29 q0 118 -53 177t-142 59t-159.5 -67t-95.5 -198zM636 1196l209 300h306l-324 -300h-191z" />
<glyph unicode="&#xea;" d="M119 469q0 218 121 388q165 230 471 230q195 0 310 -120.5t115 -337.5q0 -104 -20 -187h-720q-1 -17 -1 -26q0 -106 60.5 -171t147.5 -65q143 0 223 148l257 -43q-75 -155 -200.5 -232.5t-281.5 -77.5q-214 0 -348 135.5t-134 358.5zM378 1197l297 301h268l122 -301h-198 l-77 178l-176 -178h-236zM425 617h449q1 19 1 29q0 118 -53 177t-142 59t-159.5 -67t-95.5 -198z" />
<glyph unicode="&#xeb;" d="M119 469q0 218 121 388q165 230 471 230q195 0 310 -120.5t115 -337.5q0 -104 -20 -187h-720q-1 -17 -1 -26q0 -106 60.5 -171t147.5 -65q143 0 223 148l257 -43q-75 -155 -200.5 -232.5t-281.5 -77.5q-214 0 -348 135.5t-134 358.5zM380 1223l51 245h246l-51 -245h-246z M425 617h449q1 19 1 29q0 118 -53 177t-142 59t-159.5 -67t-95.5 -198zM801 1223l51 245h246l-51 -245h-246z" />
<glyph unicode="&#xec;" horiz-adv-x="569" d="M82 0l222 1062h287l-222 -1062h-287zM307 1499h276l128 -299h-194z" />
<glyph unicode="&#xed;" horiz-adv-x="569" d="M82 0l222 1062h287l-222 -1062h-287zM331 1196l209 300h306l-324 -300h-191z" />
<glyph unicode="&#xee;" horiz-adv-x="569" d="M82 0l222 1062h287l-222 -1062h-287zM111 1197l297 301h268l122 -301h-198l-77 178l-176 -178h-236z" />
<glyph unicode="&#xef;" horiz-adv-x="569" d="M82 0l222 1062h287l-222 -1062h-287zM137 1223l51 245h246l-51 -245h-246zM558 1223l51 245h246l-51 -245h-246z" />
<glyph unicode="&#xf0;" horiz-adv-x="1251" d="M124 447q0 237 138 411q161 204 414 204q95 0 167 -33q55 -25 116 -91q-35 160 -103 285l-242 -87l-35 99l224 80q-42 67 -115 151h271q26 -37 51 -75l202 75l33 -99l-179 -67q98 -177 135.5 -315.5t37.5 -315.5q0 -257 -136 -453q-167 -242 -470 -242q-218 0 -337 97 q-172 138 -172 376zM407 421q0 -105 59.5 -166t156.5 -61q90 0 166 63t115 170.5t39 179.5q0 107 -60.5 169t-154.5 62q-152 0 -236.5 -138.5t-84.5 -278.5z" />
<glyph unicode="&#xf1;" horiz-adv-x="1251" d="M86 0l222 1062h272l-28 -138q102 88 190.5 125.5t186.5 37.5q131 0 206.5 -75t75.5 -199q0 -56 -33 -212l-125 -601h-287l126 603q28 135 28 161q0 55 -32.5 86.5t-90.5 31.5q-63 0 -140 -53t-121 -140q-32 -62 -72 -253l-91 -436h-287zM481 1213q27 122 64 171 q54 70 134 70q52 0 186 -49q78 -28 107 -28q23 0 39 14.5t30 63.5h128q-19 -123 -75.5 -181.5t-126.5 -58.5q-45 0 -144 40t-126 40q-30 0 -52 -17.5t-38 -64.5h-126z" />
<glyph unicode="&#xf2;" horiz-adv-x="1251" d="M124 441q0 295 166.5 470.5t437.5 175.5q235 0 367 -129.5t132 -348.5q0 -258 -165 -446t-442 -188q-150 0 -266 60t-173 170t-57 236zM412 445q0 -114 62 -181t156 -67q118 0 198 101q114 143 114 348q0 102 -59.5 163.5t-153.5 61.5q-93 0 -165 -57.5t-112 -167 t-40 -201.5zM555 1499h276l128 -299h-194z" />
<glyph unicode="&#xf3;" horiz-adv-x="1251" d="M124 441q0 295 166.5 470.5t437.5 175.5q235 0 367 -129.5t132 -348.5q0 -258 -165 -446t-442 -188q-150 0 -266 60t-173 170t-57 236zM412 445q0 -114 62 -181t156 -67q118 0 198 101q114 143 114 348q0 102 -59.5 163.5t-153.5 61.5q-93 0 -165 -57.5t-112 -167 t-40 -201.5zM583 1196l209 300h306l-324 -300h-191z" />
<glyph unicode="&#xf4;" horiz-adv-x="1251" d="M124 441q0 295 166.5 470.5t437.5 175.5q235 0 367 -129.5t132 -348.5q0 -258 -165 -446t-442 -188q-150 0 -266 60t-173 170t-57 236zM412 445q0 -114 62 -181t156 -67q118 0 198 101q114 143 114 348q0 102 -59.5 163.5t-153.5 61.5q-93 0 -165 -57.5t-112 -167 t-40 -201.5zM425 1197l297 301h268l122 -301h-198l-77 178l-176 -178h-236z" />
<glyph unicode="&#xf5;" horiz-adv-x="1251" d="M124 441q0 295 166.5 470.5t437.5 175.5q235 0 367 -129.5t132 -348.5q0 -258 -165 -446t-442 -188q-150 0 -266 60t-173 170t-57 236zM412 445q0 -114 62 -181t156 -67q118 0 198 101q114 143 114 348q0 102 -59.5 163.5t-153.5 61.5q-93 0 -165 -57.5t-112 -167 t-40 -201.5zM440 1213q27 122 64 171q54 70 134 70q52 0 186 -49q78 -28 107 -28q23 0 39 14.5t30 63.5h128q-19 -123 -75.5 -181.5t-126.5 -58.5q-45 0 -144 40t-126 40q-30 0 -52 -17.5t-38 -64.5h-126z" />
<glyph unicode="&#xf6;" horiz-adv-x="1251" d="M124 441q0 295 166.5 470.5t437.5 175.5q235 0 367 -129.5t132 -348.5q0 -258 -165 -446t-442 -188q-150 0 -266 60t-173 170t-57 236zM412 445q0 -114 62 -181t156 -67q118 0 198 101q114 143 114 348q0 102 -59.5 163.5t-153.5 61.5q-93 0 -165 -57.5t-112 -167 t-40 -201.5zM427 1223l51 245h246l-51 -245h-246zM848 1223l51 245h246l-51 -245h-246z" />
<glyph unicode="&#xf7;" horiz-adv-x="1124" d="M130 592v263h1025v-263h-1025zM502 185v281h281v-281h-281zM502 981v281h281v-281h-281z" />
<glyph unicode="&#xf8;" horiz-adv-x="1251" d="M108 -11l122 141q-109 129 -109 324q0 229 126 406q161 227 479 227q165 0 276 -61l124 144l111 -94l-122 -142q109 -125 109 -326q0 -257 -165 -445t-441 -188q-156 0 -275 64l-127 -146zM389 425q0 -47 15 -93l442 513q-54 34 -125 34q-62 0 -112 -25.5t-97.5 -81.5 t-78.5 -134q-44 -110 -44 -213zM495 216q55 -31 125 -31q93 0 169 58.5t120.5 174t44.5 213.5q0 46 -17 97z" />
<glyph unicode="&#xf9;" horiz-adv-x="1251" d="M144 251q0 55 34 219l124 592h287l-131 -629q-24 -113 -24 -141q0 -46 34 -79t87 -33q38 0 75 14.5t76 44t70 67.5t58 100q19 46 41 150l106 506h287l-222 -1062h-268l30 144q-176 -169 -383 -169q-131 0 -206 75t-75 201zM590 1499h276l128 -299h-194z" />
<glyph unicode="&#xfa;" horiz-adv-x="1251" d="M144 251q0 55 34 219l124 592h287l-131 -629q-24 -113 -24 -141q0 -46 34 -79t87 -33q38 0 75 14.5t76 44t70 67.5t58 100q19 46 41 150l106 506h287l-222 -1062h-268l30 144q-176 -169 -383 -169q-131 0 -206 75t-75 201zM630 1196l209 300h306l-324 -300h-191z" />
<glyph unicode="&#xfb;" horiz-adv-x="1251" d="M144 251q0 55 34 219l124 592h287l-131 -629q-24 -113 -24 -141q0 -46 34 -79t87 -33q38 0 75 14.5t76 44t70 67.5t58 100q19 46 41 150l106 506h287l-222 -1062h-268l30 144q-176 -169 -383 -169q-131 0 -206 75t-75 201zM436 1197l297 301h268l122 -301h-198l-77 178 l-176 -178h-236z" />
<glyph unicode="&#xfc;" horiz-adv-x="1251" d="M144 251q0 55 34 219l124 592h287l-131 -629q-24 -113 -24 -141q0 -46 34 -79t87 -33q38 0 75 14.5t76 44t70 67.5t58 100q19 46 41 150l106 506h287l-222 -1062h-268l30 144q-176 -169 -383 -169q-131 0 -206 75t-75 201zM486 1223l51 245h246l-51 -245h-246zM907 1223 l51 245h246l-51 -245h-246z" />
<glyph unicode="&#xfd;" d="M13 -399l25 214q52 -15 101 -15q132 0 217 200l-185 1062h286l72 -529q27 -204 30 -286q56 163 154 344l254 471h304l-656 -1166q-81 -145 -127.5 -203t-112 -91t-157.5 -33q-91 0 -205 32zM552 1196l209 300h306l-324 -300h-191z" />
<glyph unicode="&#xfe;" horiz-adv-x="1251" d="M-19 -405l398 1871h287l-102 -491q145 112 300 112q167 0 268.5 -115t101.5 -342q0 -288 -175 -486q-149 -169 -355 -169q-211 0 -319 171l-117 -551h-287zM462 453q0 -124 60.5 -192.5t142.5 -68.5q71 0 137 51t109.5 171t43.5 222q0 119 -57 182.5t-144 63.5 q-83 0 -150 -58t-104.5 -171.5t-37.5 -199.5z" />
<glyph unicode="&#xff;" d="M13 -399l25 214q52 -15 101 -15q132 0 217 200l-185 1062h286l72 -529q27 -204 30 -286q56 163 154 344l254 471h304l-656 -1166q-81 -145 -127.5 -203t-112 -91t-157.5 -33q-91 0 -205 32zM397 1223l51 245h246l-51 -245h-246zM818 1223l51 245h246l-51 -245h-246z" />
<glyph unicode="&#x152;" horiz-adv-x="2048" d="M141 574q0 257 100 478.5t276.5 330t352.5 108.5q115 0 209 -50.5t142 -138.5l35 164h953l-51 -245h-667l-68 -327h647l-51 -245h-648l-84 -404h734l-51 -245h-1021l25 118q-64 -74 -138.5 -108.5t-179.5 -34.5q-219 0 -367 159.5t-148 439.5zM411 541q0 -151 82.5 -237 t214.5 -86q95 0 166.5 44.5t119 125t84.5 234.5q52 213 52 343t-74 207t-192 77q-126 0 -230.5 -91t-170.5 -292q-52 -162 -52 -325z" />
<glyph unicode="&#x153;" horiz-adv-x="1933" d="M119 453q0 163 71 314.5t208.5 235.5t337.5 84q117 0 210.5 -37t162.5 -111q171 148 391 148q201 0 317 -120.5t116 -340.5q0 -104 -25 -187h-716q-2 -124 58 -191.5t148 -67.5q148 0 225 149l255 -45q-171 -309 -482 -309q-236 0 -370 159q-79 -79 -181 -119t-228 -40 q-149 0 -263.5 58t-174.5 171.5t-60 248.5zM405 415q0 -97 60.5 -158.5t153.5 -61.5q144 0 228 131.5t84 294.5q0 120 -60.5 185t-153.5 65q-122 0 -199 -97q-113 -143 -113 -359zM1221 616h447q1 20 1 35q0 115 -52.5 173t-138.5 58q-88 0 -155 -61.5t-102 -204.5z" />
<glyph unicode="&#x178;" horiz-adv-x="1366" d="M235 1466h321l182 -414q65 -149 87 -215q37 65 86 138l139 194l207 297h350l-672 -923l-114 -543h-301l119 571zM585 1549l51 245h246l-51 -245h-246zM1006 1549l51 245h246l-51 -245h-246z" />
<glyph unicode="&#x2c6;" horiz-adv-x="682" d="M115 1197l297 301h268l122 -301h-198l-77 178l-176 -178h-236z" />
<glyph unicode="&#x2dc;" horiz-adv-x="682" d="M190 1213q27 122 64 171q54 70 134 70q52 0 186 -49q78 -28 107 -28q23 0 39 14.5t30 63.5h128q-19 -123 -75.5 -181.5t-126.5 -58.5q-45 0 -144 40t-126 40q-30 0 -52 -17.5t-38 -64.5h-126z" />
<glyph unicode="&#x2000;" horiz-adv-x="927" />
<glyph unicode="&#x2001;" horiz-adv-x="1854" />
<glyph unicode="&#x2002;" horiz-adv-x="927" />
<glyph unicode="&#x2003;" horiz-adv-x="1854" />
<glyph unicode="&#x2004;" horiz-adv-x="618" />
<glyph unicode="&#x2005;" horiz-adv-x="463" />
<glyph unicode="&#x2006;" horiz-adv-x="309" />
<glyph unicode="&#x2007;" horiz-adv-x="309" />
<glyph unicode="&#x2008;" horiz-adv-x="231" />
<glyph unicode="&#x2009;" horiz-adv-x="370" />
<glyph unicode="&#x200a;" horiz-adv-x="103" />
<glyph unicode="&#x2010;" horiz-adv-x="682" d="M79 390l58 277h557l-58 -277h-557z" />
<glyph unicode="&#x2011;" horiz-adv-x="682" d="M79 390l58 277h557l-58 -277h-557z" />
<glyph unicode="&#x2012;" horiz-adv-x="682" d="M79 390l58 277h557l-58 -277h-557z" />
<glyph unicode="&#x2013;" d="M-4 426v210h1139v-210h-1139z" />
<glyph unicode="&#x2014;" horiz-adv-x="2048" d="M0 426v210h2048v-210h-2048z" />
<glyph unicode="&#x2018;" horiz-adv-x="569" d="M223 887l48 229q42 199 132 281.5t234 85.5l-28 -133q-72 -17 -111 -58t-59 -128h132l-58 -277h-290z" />
<glyph unicode="&#x2019;" horiz-adv-x="569" d="M253 870l28 133q72 16 111 57.5t59 127.5h-132l59 278h289l-48 -229q-41 -199 -131.5 -281.5t-234.5 -85.5z" />
<glyph unicode="&#x201a;" horiz-adv-x="569" d="M21 -318l28 133q72 16 111.5 57.5t58.5 127.5h-132l59 277h289l-48 -229q-41 -198 -131.5 -280.5t-234.5 -85.5z" />
<glyph unicode="&#x201c;" horiz-adv-x="1024" d="M256 887l48 229q42 199 132 281.5t234 85.5l-28 -133q-72 -17 -111 -58t-59 -128h132l-58 -277h-290zM739 887l47 229q42 199 132.5 281.5t234.5 85.5l-28 -133q-72 -17 -111 -58t-60 -128h132l-58 -277h-289z" />
<glyph unicode="&#x201d;" horiz-adv-x="1024" d="M263 870l28 133q72 16 111 57.5t59 127.5h-132l59 278h289l-48 -229q-41 -199 -131.5 -281.5t-234.5 -85.5zM746 870l27 133q72 16 111.5 57.5t59.5 127.5h-132l58 278h290l-48 -229q-42 -199 -132.5 -281.5t-233.5 -85.5z" />
<glyph unicode="&#x201e;" horiz-adv-x="1024" d="M7 -318l28 133q72 16 111.5 57.5t58.5 127.5h-132l59 277h289l-48 -229q-41 -198 -131.5 -280.5t-234.5 -85.5zM490 -318l27 133q72 16 111.5 57.5t59.5 127.5h-132l58 277h290l-48 -229q-42 -198 -132.5 -280.5t-233.5 -85.5z" />
<glyph unicode="&#x2022;" horiz-adv-x="717" d="M166 724q0 122 86.5 208.5t209.5 86.5q122 0 208.5 -86t86.5 -209t-86.5 -209.5t-208.5 -86.5q-123 0 -209.5 87t-86.5 209z" />
<glyph unicode="&#x2026;" horiz-adv-x="2048" d="M190 0l58 277h284l-58 -277h-284zM853 0l58 277h284l-58 -277h-284zM1517 0l58 277h283l-58 -277h-283z" />
<glyph unicode="&#x202f;" horiz-adv-x="370" />
<glyph unicode="&#x2039;" horiz-adv-x="682" d="M122 552l412 425h241l-361 -444l132 -462h-201z" />
<glyph unicode="&#x203a;" horiz-adv-x="682" d="M20 71l353 447l-126 459h206l200 -481l-389 -425h-244z" />
<glyph unicode="&#x205f;" horiz-adv-x="463" />
<glyph unicode="&#x20ac;" d="M55 514l30 155h113q4 48 15 132h-158l30 154h163q79 238 274 389q189 147 447 147q202 0 340 -93l-110 -271q-76 104 -236 104q-268 0 -396 -276h498l-30 -154h-516q-8 -32 -21 -132h512l-30 -155h-488q7 -118 91.5 -202.5t202.5 -84.5q177 0 309 100l-66 -304 q-131 -49 -263 -49q-266 0 -413 155q-136 142 -158 385h-140z" />
<glyph unicode="&#x2122;" horiz-adv-x="2048" d="M296 1324v142h665v-142h-246v-677h-166v677h-253zM1060 647v819h259l149 -564l150 564h259v-819h-158v653l-177 -653h-150l-176 653v-653h-156z" />
<glyph unicode="&#x25fc;" horiz-adv-x="1060" d="M0 0v1060h1060v-1060h-1060z" />
<glyph unicode="&#xfb01;" horiz-adv-x="1251" d="M119 0l178 852h-160l44 210h160l23 109q28 134 53 181q34 64 102 101.5t176 37.5q132 0 278 -48l-56 -205q-103 35 -167 35q-49 0 -73 -31q-15 -20 -33 -105l-16 -75h203l-44 -210h-203l-178 -852h-287zM763 0l222 1062h287l-222 -1062h-287zM1015 1206l54 260h287 l-54 -260h-287z" />
<glyph unicode="&#xfb02;" horiz-adv-x="1251" d="M116 0l178 852h-160l44 210h160l23 109q28 134 53 181q34 64 101.5 101.5t176.5 37.5q132 0 278 -48l-56 -205q-103 35 -167 35q-49 0 -73 -31q-16 -20 -33 -105l-16 -75h203l-44 -210h-203l-178 -852h-287zM760 0l307 1466h287l-307 -1466h-287z" />
<glyph unicode="&#xfb03;" horiz-adv-x="1885" d="M110 0l178 852h-160l44 210h160l23 109q14 67 27 112.5t26 68.5q34 64 101.5 101.5t176.5 37.5q132 0 278 -48l-56 -205q-105 35 -167 35q-49 0 -73 -31q-15 -20 -33 -105l-16 -75h357l23 109q14 67 27 112.5t26 68.5q34 64 101.5 101.5t176.5 37.5q132 0 278 -48 l-56 -205q-105 35 -167 35q-49 0 -73 -31q-15 -20 -33 -105l-16 -75h203l-44 -210h-203l-178 -852h-287l178 852h-357l-178 -852h-287zM1398 0l222 1062h287l-222 -1062h-287zM1650 1206l54 260h287l-54 -260h-287z" />
<glyph unicode="&#xfb04;" horiz-adv-x="1888" d="M110 0l178 852h-160l44 210h160l23 109q14 67 27 112.5t26 68.5q34 64 101.5 101.5t176.5 37.5q132 0 278 -48l-56 -205q-105 35 -167 35q-49 0 -73 -31q-15 -20 -33 -105l-16 -75h357l23 109q14 67 27 112.5t26 68.5q34 64 101.5 101.5t176.5 37.5q132 0 278 -48 l-56 -205q-105 35 -167 35q-49 0 -73 -31q-15 -20 -33 -105l-16 -75h203l-44 -210h-203l-178 -852h-287l178 852h-357l-178 -852h-287zM1398 0l307 1466h287l-307 -1466h-287z" />
</font>
</defs>
</svg>
